<svg width="114" height="18" fill="none" xmlns="http://www.w3.org/2000/svg"><path d="M9 1.5l2.318 4.695 5.182.757-3.75 3.653.885 5.16L9 13.327l-4.635 2.438.885-5.16L1.5 6.952l5.183-.757L9 1.5zm24 0l2.318 4.695 5.182.757-3.75 3.653.885 5.16L33 13.327l-4.635 2.438.885-5.16-3.75-3.653 5.183-.757L33 1.5zm24 0l2.318 4.695 5.182.757-3.75 3.653.885 5.16L57 13.327l-4.635 2.438.885-5.16-3.75-3.653 5.182-.757L57 1.5zm24 0l2.317 4.695 5.183.757-3.75 3.653.885 5.16L81 13.327l-4.635 2.438.885-5.16-3.75-3.653 5.183-.757L81 1.5zm24 0l2.318 4.695 5.182.757-3.75 3.653.885 5.16L105 13.327l-4.635 2.438.885-5.16-3.75-3.653 5.182-.757L105 1.5z" fill="#27EDBD"/></svg>