<svg width="110" height="69" fill="none" xmlns="http://www.w3.org/2000/svg"><path d="M69.615 8.109H40.207v52.783h29.408V8.109z" fill="#B4E8CF"/><path d="M42.164 34.5c0-10.724 5.047-20.242 12.79-26.392C49.255 3.632 42.066.926 34.224.926 15.65.926.619 15.942.619 34.5s15.03 33.574 33.607 33.574c7.841 0 15.03-2.706 20.73-7.182-7.755-6.063-12.79-15.668-12.79-26.392z" fill="#EBFFF3"/><path d="M109.291 34.5c0 18.558-15.03 33.574-33.607 33.574-7.841 0-15.03-2.706-20.729-7.182 7.842-6.16 12.79-15.668 12.79-26.392s-5.046-20.242-12.79-26.392C60.643 3.632 67.832.926 75.674.926 94.26.926 109.29 16.04 109.29 34.5z" fill="#A3DEC1"/></svg>