<svg width="188" height="59" fill="none" xmlns="http://www.w3.org/2000/svg"><path d="M174.765 1.288h-11.779c-3.561 0-6.3 1.106-7.944 4.702L132.58 57.71h15.888s2.739-6.914 3.287-8.574h19.449c.548 1.936 1.917 8.298 1.917 8.298h14.244l-12.6-56.147zM156.138 37.52c1.369-3.32 6.026-15.766 6.026-15.766 0 .277 1.37-3.319 1.918-5.255l1.095 4.979s3.014 13.552 3.561 16.318h-12.6v-.276zm-22.462 1.66c0 11.617-10.409 19.362-26.571 19.362-6.848 0-13.422-1.383-16.983-3.043l2.191-12.723 1.918.83c4.93 2.213 8.218 3.042 14.244 3.042 4.383 0 9.04-1.66 9.04-5.531 0-2.49-1.918-4.15-7.944-6.915-5.753-2.766-13.423-7.191-13.423-15.212 0-11.064 10.683-18.532 25.749-18.532 5.753 0 10.684 1.107 13.697 2.49l-2.192 12.17-1.095-1.107c-2.74-1.106-6.301-2.213-11.505-2.213-5.753.277-8.492 2.766-8.492 4.979 0 2.49 3.287 4.425 8.492 6.915 8.765 4.148 12.874 8.85 12.874 15.489z" fill="#EBFFF3"/><path d="M0 1.841L.274.735h23.558c3.287 0 5.752 1.106 6.574 4.702L35.61 30.33C30.406 17.054 18.353 6.267 0 1.84z" fill="#C6FFE3"/><path d="M68.757 1.288L44.925 57.436H28.763l-13.696-47.02c9.861 6.361 18.08 16.318 21.092 23.233l1.644 5.808L52.595 1.012h16.162v.276zm6.299-.276h15.066l-9.587 56.424H65.469l9.587-56.424z" fill="#EBFFF3"/></svg>